# xmcd
#
# Track frame offsets:
# 150
# 9620
# 22910
# 41406
# 59798
# 78249
# 95199
# 106335
# 121481
# 137832
# 155449
# 169339
# 185057
# 203890
# 228565
# 244222
# 261545
# 280701
# 296652
# 310564
# 328085
# 341119
#
# Disc length: 4754 seconds
#
# Revision: 0
# Processed by: cddbd v1.5.1PL2 Copyright (c) Steve Scherf et al.
# Submitted via: Audion 3.0.2 (http://www.panic.com/audion/)
#
DISCID=4e129016
DTITLE=ffffff - bl;ajh
DYEAR=1900
DGENRE=
TTITLE0=f
TTITLE1=f
TTITLE2=f
TTITLE3=f
TTITLE4=f
TTITLE5=f
TTITLE6=f
TTITLE7=h
TTITLE8=h
TTITLE9=h
TTITLE10=h
TTITLE11=h
TTITLE12=h
TTITLE13=h
TTITLE14=h
TTITLE15=hh
TTITLE16=h
TTITLE17=hh
TTITLE18=h
TTITLE19=hh
TTITLE20=h
TTITLE21=h
EXTD=
EXTT0=
EXTT1=
EXTT2=
EXTT3=
EXTT4=
EXTT5=
EXTT6=
EXTT7=
EXTT8=
EXTT9=
EXTT10=
EXTT11=
EXTT12=
EXTT13=
EXTT14=
EXTT15=
EXTT16=
EXTT17=
EXTT18=
EXTT19=
EXTT20=
EXTT21=
PLAYORDER=
